<svg width="128" height="128" viewBox="0 0 128 128" fill="none" xmlns="http://www.w3.org/2000/svg">
<g clip-path="url(#clip0_39_797)">
<rect width="128" height="128" fill="white"/>
<path d="M86.7131 118.136C50.8918 118.136 37.6971 118.136 1.9922 118.136C1.9922 63.8614 1.99219 56.0471 1.99219 1.77247C56.2668 1.77247 63.8531 1.77246 118.128 1.77246C118.128 56.0471 118.15 63.8615 118.15 118.136C99.6575 118.136 105.322 118.136 86.7131 118.136ZM34.6014 118.136C62.4557 118.136 90.3101 118.136 118.15 118.136C118.15 111.871 118.15 105.766 118.15 99.5989C114.787 99.5989 111.475 99.3619 108.214 99.668C105.173 99.9533 103.117 98.9514 101.377 96.5354C100.106 94.7695 98.4665 93.2683 96.9588 91.6135C94.7092 94.084 92.5299 96.4466 90.3939 98.8478C89.9189 99.3817 89.4532 99.6177 88.7188 99.6165C74.0282 99.5929 59.3375 99.5989 44.6467 99.5989C44.2796 99.5989 43.9123 99.5989 43.4625 99.5989C43.4625 87.1072 43.4625 74.7941 43.4625 62.3546C38.4919 62.3546 33.6039 62.3546 28.6678 62.3546C28.7212 62.1137 28.7277 61.9969 28.7719 61.8968C34.7596 48.3479 40.7556 34.8027 46.7225 21.2446C46.9967 20.6217 47.3392 20.499 47.9485 20.5014C53.2975 20.5221 58.6468 20.5279 63.9958 20.4957C64.6923 20.4915 64.9893 20.7339 65.2573 21.3498C67.0005 25.355 68.7878 29.3412 70.5654 33.3314C70.7253 33.6906 70.9181 34.0352 71.0957 34.3865C71.1713 34.3656 71.247 34.3449 71.3227 34.3241C71.3227 29.7363 71.3227 25.1486 71.3227 20.5136C78.5303 20.5136 85.6219 20.5038 92.7133 20.5468C93.0199 20.5486 93.4821 20.9775 93.6041 21.3068C94.8127 24.5675 95.9647 27.849 97.2002 31.3139C97.4173 30.7706 97.5833 30.3893 97.7233 29.9986C98.7412 27.1591 99.7847 24.328 100.748 21.4699C101.002 20.7149 101.343 20.4858 102.136 20.4925C107.058 20.534 111.981 20.5134 116.904 20.5134C117.317 20.5134 117.73 20.5134 118.128 20.5134C118.128 14.1761 118.128 7.96602 118.128 1.77246C79.3627 1.77246 40.6934 1.77247 1.99219 1.77247C1.99219 40.5704 1.9922 79.3063 1.9922 118.136C12.8323 118.136 23.6005 118.136 34.6014 118.136ZM63.5658 29.2331C63.0971 28.1723 62.5922 27.1255 62.1729 26.0455C61.9167 25.3857 61.5808 25.102 60.8217 25.1133C57.605 25.1612 54.3868 25.1562 51.1698 25.1159C50.4735 25.1072 50.1467 25.3464 49.875 25.9655C45.3521 36.273 40.8069 46.5708 36.2701 56.8722C36.1579 57.1274 36.0849 57.3999 35.9707 57.7304C39.0382 57.7304 41.9838 57.7565 44.9278 57.6972C45.2959 57.6899 45.8292 57.3122 45.9884 56.9683C46.7514 55.3198 47.4392 53.6344 48.094 51.939C48.314 51.3694 48.6168 51.2019 49.2062 51.205C53.664 51.2279 58.1221 51.2304 62.5797 51.2025C63.2003 51.1987 63.4498 51.4411 63.6628 51.9786C64.3039 53.596 65.0406 55.176 65.6633 56.8001C65.9432 57.5303 66.3282 57.7572 67.1149 57.7515C72.6967 57.7118 78.2789 57.7317 83.861 57.7271C84.1922 57.7269 84.5234 57.6807 84.941 57.6494C84.941 50.2987 84.941 43.0416 84.941 35.7846C85.3092 36.1927 85.488 36.6411 85.6544 37.0942C88.0678 43.6647 90.4887 50.2325 92.8778 56.8119C93.1234 57.4886 93.4234 57.7764 94.1879 57.7513C96.1241 57.6882 98.0653 57.6841 100.001 57.7519C100.841 57.7814 101.197 57.5027 101.481 56.7164C103.935 49.9137 106.437 43.1283 108.929 36.3392C109.018 36.096 109.145 35.8667 109.255 35.631C109.311 35.651 109.368 35.671 109.425 35.691C109.425 43.0051 109.425 50.3191 109.425 57.6658C112.378 57.6658 115.261 57.6658 118.159 57.6658C118.159 46.8069 118.159 36.0125 118.159 25.1343C113.762 25.1343 109.428 25.1178 105.095 25.1712C104.802 25.1748 104.376 25.6551 104.249 26.001C102.747 30.0641 101.293 34.1445 99.8226 38.2193C99.0003 40.4984 98.1715 42.7751 97.2555 45.3015C97.0484 44.7338 96.9354 44.4286 96.8255 44.1224C94.6592 38.0792 92.4827 32.0394 90.3422 25.9871C90.1123 25.3367 89.8142 25.1102 89.1156 25.1164C85.0845 25.1517 81.0528 25.1319 77.0213 25.1373C76.7275 25.1377 76.4335 25.1892 76.0441 25.226C76.0441 35.8808 76.0441 46.4606 76.0441 57.0404C75.9825 57.0521 75.9208 57.0638 75.8591 57.0755C71.7812 47.8502 67.7032 38.6249 63.5658 29.2331ZM114.805 66.0561C115.909 64.8906 117.013 63.7251 118.118 62.5588C117.999 62.4517 117.973 62.4093 117.947 62.4092C115.7 62.3979 113.452 62.3832 111.205 62.3841C109.733 62.3847 108.072 61.9862 106.842 62.5387C105.574 63.1086 104.717 64.6055 103.697 65.712C101.548 68.042 99.4106 70.3818 97.2084 72.7829C94.2568 69.5286 91.3602 66.3598 88.5001 63.1583C87.9938 62.5916 87.4806 62.3631 86.7131 62.3646C74.3479 62.3888 61.9828 62.3817 49.6176 62.3817C49.2427 62.3817 48.8678 62.3817 48.4769 62.3817C48.4769 73.3027 48.4769 84.0949 48.4769 94.9786C49 94.9786 49.4571 94.9786 49.914 94.9786C60.922 94.9786 71.9332 94.831 82.936 95.068C86.2717 95.1398 88.5928 94.3055 90.6004 91.6426C92.4958 89.1286 94.819 86.9372 97.1212 84.4212C97.3989 84.8025 97.5789 85.1025 97.8088 85.3573C100.455 88.2904 103.129 91.1994 105.745 94.1586C106.287 94.7715 106.83 95.0063 107.635 94.9956C110.774 94.9541 113.914 94.9803 117.054 94.9762C117.376 94.9757 117.698 94.9408 118.203 94.9112C112.998 89.3862 107.934 84.0115 102.841 78.6062C106.835 74.4135 110.761 70.2933 114.805 66.0561ZM118.224 84.8247C118.224 79.7008 118.224 74.5768 118.224 69.1485C115.107 72.4355 112.201 75.4998 109.24 78.6213C112.226 81.7928 115.134 84.8813 118.224 88.1625C118.224 86.9058 118.224 85.9806 118.224 84.8247Z" fill="white"/>
<path d="M34.485 118.136C23.6005 118.136 12.8323 118.136 1.99219 118.136C1.99219 79.3063 1.99219 40.5703 1.99219 1.77246C40.6934 1.77246 79.3627 1.77246 118.128 1.77246C118.128 7.96602 118.128 14.1761 118.128 20.5134C117.73 20.5134 117.317 20.5134 116.904 20.5134C111.981 20.5134 107.058 20.534 102.136 20.4925C101.343 20.4858 101.002 20.7149 100.748 21.4699C99.7847 24.328 98.7412 27.159 97.7233 29.9986C97.5833 30.3893 97.4173 30.7705 97.2002 31.3139C95.9647 27.849 94.8127 24.5675 93.6041 21.3068C93.4821 20.9775 93.0199 20.5486 92.7133 20.5468C85.6219 20.5038 78.5303 20.5136 71.3227 20.5136C71.3227 25.1485 71.3227 29.7363 71.3227 34.3241C71.247 34.3448 71.1713 34.3656 71.0957 34.3865C70.9181 34.0352 70.7253 33.6906 70.5654 33.3314C68.7878 29.3411 67.0005 25.355 65.2573 21.3498C64.9893 20.7339 64.6923 20.4914 63.9958 20.4957C58.6468 20.5279 53.2975 20.5221 47.9485 20.5014C47.3392 20.499 46.9967 20.6217 46.7225 21.2446C40.7556 34.8027 34.7596 48.3479 28.7719 61.8968C28.7277 61.9969 28.7212 62.1137 28.6678 62.3545C33.6039 62.3545 38.4919 62.3545 43.4625 62.3545C43.4625 74.7941 43.4625 87.1072 43.4625 99.5989C43.9123 99.5989 44.2796 99.5989 44.6467 99.5989C59.3375 99.5989 74.0282 99.5929 88.7188 99.6165C89.4532 99.6177 89.9189 99.3817 90.3939 98.8477C92.5299 96.4466 94.7092 94.084 96.9588 91.6135C98.4665 93.2683 100.106 94.7695 101.377 96.5352C103.117 98.9514 105.173 99.9533 108.214 99.668C111.475 99.3618 114.787 99.5989 118.15 99.5989C118.15 105.766 118.15 111.871 118.15 118.136C90.3101 118.136 62.4557 118.136 34.485 118.136Z" fill="#016FCF"/>
<path d="M63.5936 29.3165C67.7013 38.6251 71.7793 47.8504 75.8573 57.0757C75.9188 57.064 75.9805 57.0524 76.0422 57.0406C76.0422 46.4609 76.0422 35.8811 76.0422 25.2262C76.4315 25.1895 76.7255 25.1379 77.0194 25.1376C81.0508 25.1322 85.0826 25.152 89.1138 25.1166C89.8123 25.1105 90.1103 25.337 90.3404 25.9873C92.4807 32.0397 94.6572 38.0794 96.8237 44.1227C96.9334 44.4288 97.0464 44.7339 97.2535 45.3018C98.1695 42.7754 98.9983 40.4986 99.8207 38.2195C101.291 34.1448 102.745 30.0644 104.247 26.0012C104.374 25.6554 104.8 25.175 105.093 25.1714C109.426 25.118 113.76 25.1345 118.157 25.1345C118.157 36.0128 118.157 46.807 118.157 57.6661C115.259 57.6661 112.376 57.6661 109.423 57.6661C109.423 50.3192 109.423 43.0053 109.423 35.6913C109.366 35.6713 109.309 35.6513 109.253 35.6312C109.143 35.867 109.016 36.0962 108.927 36.3393C106.435 43.1286 103.933 49.9138 101.479 56.7167C101.195 57.503 100.839 57.7816 99.9992 57.7522C98.0634 57.6843 96.1221 57.6883 94.1859 57.7516C93.4214 57.7766 93.1214 57.4889 92.8758 56.8122C90.4867 50.2328 88.0658 43.665 85.6524 37.0945C85.486 36.6414 85.3073 36.1929 84.939 35.7848C84.939 43.0419 84.939 50.299 84.939 57.6497C84.5214 57.681 84.1902 57.7272 83.859 57.7274C78.2769 57.7318 72.6947 57.7121 67.1129 57.7517C66.3262 57.7573 65.9412 57.5305 65.6613 56.8002C65.0386 55.1763 64.302 53.5963 63.6609 51.9788C63.4479 51.4413 63.1983 51.199 62.5779 51.2028C58.1201 51.2307 53.6621 51.2282 49.2043 51.2052C48.6148 51.2022 48.312 51.3697 48.092 51.9393C47.4372 53.6347 46.7495 55.3201 45.9864 56.9686C45.8272 57.3125 45.2939 57.6902 44.9258 57.6975C41.982 57.7567 39.0363 57.7306 35.9688 57.7306C36.0829 57.4002 36.1559 57.1277 36.2683 56.8725C40.8049 46.5711 45.3501 36.2732 49.873 25.9657C50.1447 25.3467 50.4715 25.1074 51.1679 25.116C54.3848 25.1564 57.603 25.1614 60.8197 25.1136C61.5789 25.1023 61.9147 25.386 62.1709 26.0458C62.5903 27.1258 63.0951 28.1726 63.5936 29.3165ZM59.711 42.5878C58.4656 39.5813 57.2201 36.575 55.8662 33.307C54.3412 36.9918 52.9369 40.3847 51.5135 43.8234C54.49 43.8234 57.3101 43.8234 60.2008 43.8234C60.034 43.3875 59.9109 43.0657 59.711 42.5878Z" fill="#0170CF"/>
<path d="M114.738 66.1073C110.753 70.286 106.827 74.4061 102.832 78.5988C107.925 84.0041 112.99 89.3788 118.196 94.9038C117.691 94.9334 117.368 94.9685 117.046 94.9688C113.906 94.973 110.766 94.9467 107.627 94.9883C106.822 94.999 106.279 94.7641 105.737 94.1514C103.121 91.1921 100.447 88.283 97.8006 85.35C97.5707 85.0951 97.3907 84.7952 97.113 84.4138C94.8108 86.9298 92.4876 89.1212 90.5923 91.6352C88.5846 94.2981 86.2635 95.1324 82.9279 95.0606C71.925 94.8236 60.9137 94.9714 49.9058 94.9714C49.4488 94.9714 48.9918 94.9714 48.4688 94.9714C48.4688 84.0877 48.4688 73.2953 48.4688 62.3744C48.8596 62.3744 49.2345 62.3743 49.6095 62.3743C61.9746 62.3743 74.3398 62.3815 86.7049 62.3572C87.4724 62.3557 87.9856 62.5842 88.4919 63.1509C91.352 66.3524 94.2485 69.5213 97.2002 72.7756C99.4024 70.3744 101.54 68.0346 103.689 65.7048C104.709 64.5983 105.566 63.1012 106.834 62.5313C108.063 61.9788 109.725 62.3773 111.197 62.3768C113.444 62.3758 115.692 62.3906 117.94 62.4018C117.965 62.4019 117.99 62.4444 118.11 62.5514C117.005 63.7177 115.901 64.8832 114.738 66.1073ZM70.8797 87.4107C72.6033 87.4107 74.3268 87.4107 76.1461 87.4107C76.1461 89.9212 76.1461 92.2595 76.1461 94.8598C81.3289 89.3624 86.3321 84.0557 91.3892 78.6916C86.3122 73.3061 81.3099 68 76.1028 62.4765C76.1028 65.1489 76.1028 67.5236 76.1028 70.024C69.7731 70.024 63.5592 70.024 57.3253 70.024C57.3253 71.7262 57.3253 73.2992 57.3253 74.9973C63.4379 74.9973 69.4988 74.9973 75.5943 74.9973C75.5943 77.5076 75.5943 79.8921 75.5943 82.3898C69.4798 82.3898 63.4178 82.3898 57.3424 82.3898C57.3424 84.1078 57.3424 85.7117 57.3424 87.4107C61.8237 87.4107 66.2354 87.4107 70.8797 87.4107Z" fill="#0170CF"/>
<path d="M118.225 84.9391C118.225 85.9796 118.225 86.9049 118.225 88.1615C115.136 84.8803 112.228 81.7918 109.242 78.6203C112.202 75.4988 115.109 72.4345 118.225 69.1475C118.225 74.5758 118.225 79.6998 118.225 84.9391Z" fill="#0270CF"/>
<path d="M59.7514 42.6547C59.9129 43.0546 60.036 43.3764 60.2028 43.8123C57.312 43.8123 54.492 43.8123 51.5156 43.8123C52.9389 40.3735 54.3431 36.9807 55.8683 33.2959C57.2221 36.5639 58.4675 39.5702 59.7514 42.6547Z" fill="#F7FAFD"/>
<path d="M70.774 87.4112C66.246 87.4112 61.8343 87.4112 57.353 87.4112C57.353 85.7123 57.353 84.1084 57.353 82.3904C63.4284 82.3904 69.4905 82.3904 75.6049 82.3904C75.6049 79.8926 75.6049 77.5082 75.6049 74.9979C69.5094 74.9979 63.4485 74.9979 57.3359 74.9979C57.3359 73.2998 57.3359 71.7268 57.3359 70.0246C63.5699 70.0246 69.7837 70.0246 76.1134 70.0246C76.1134 67.5242 76.1134 65.1495 76.1134 62.4771C81.3206 68.0006 86.3228 73.3067 91.3999 78.6922C86.3427 84.0562 81.3395 89.363 76.1567 94.8603C76.1567 92.2601 76.1567 89.9218 76.1567 87.4112C74.3375 87.4112 72.6139 87.4112 70.774 87.4112Z" fill="#FDFEFF"/>
</g>
<defs>
<clipPath id="clip0_39_797">
<rect width="128" height="128" fill="white"/>
</clipPath>
</defs>
</svg>
