<svg width="128" height="128" viewBox="0 0 128 128" fill="none" xmlns="http://www.w3.org/2000/svg">
<rect width="128" height="128" fill="white"/>
<g clip-path="url(#clip0_45_998)">
<mask id="mask0_45_998" style="mask-type:luminance" maskUnits="userSpaceOnUse" x="0" y="16" width="127" height="99">
<path d="M126.769 16H0V114.462H126.769V16Z" fill="white"/>
</mask>
<g mask="url(#mask0_45_998)">
<path d="M23.0726 114.238V107.704C23.0726 105.199 21.549 103.565 18.9371 103.565C17.6312 103.565 16.2164 104.001 15.2369 105.417C14.4751 104.219 13.3868 103.565 11.7544 103.565C10.6661 103.565 9.57788 103.892 8.70727 105.09V103.783H6.42188V114.238H8.70727V108.466C8.70727 106.615 9.6867 105.743 11.2103 105.743C12.7339 105.743 13.4957 106.724 13.4957 108.466V114.238H15.7811V108.466C15.7811 106.615 16.8693 105.743 18.2841 105.743C19.8077 105.743 20.5695 106.724 20.5695 108.466V114.238H23.0726ZM56.918 103.783H53.2179V100.625H50.9325V103.783H48.8648V105.852H50.9325V110.644C50.9325 113.04 51.9119 114.456 54.5237 114.456C55.5032 114.456 56.5915 114.129 57.3533 113.694L56.7003 111.733C56.0473 112.169 55.2855 112.278 54.7414 112.278C53.6532 112.278 53.2179 111.625 53.2179 110.535V105.852H56.918V103.783ZM76.2894 103.565C74.9834 103.565 74.1128 104.219 73.5687 105.09V103.783H71.2833V114.238H73.5687V108.357C73.5687 106.615 74.3305 105.635 75.7452 105.635C76.1805 105.635 76.7247 105.743 77.16 105.852L77.813 103.674C77.3777 103.565 76.7247 103.565 76.2894 103.565ZM47.0147 104.654C45.9264 103.892 44.4028 103.565 42.7704 103.565C40.1585 103.565 38.4172 104.872 38.4172 106.941C38.4172 108.684 39.7232 109.664 42.0086 109.991L43.0968 110.1C44.294 110.318 44.9469 110.644 44.9469 111.189C44.9469 111.951 44.0763 112.496 42.5527 112.496C41.0291 112.496 39.832 111.951 39.0702 111.407L37.9819 113.149C39.1791 114.021 40.8115 114.456 42.4439 114.456C45.4911 114.456 47.2323 113.04 47.2323 111.08C47.2323 109.228 45.8176 108.248 43.641 107.922L42.5527 107.813C41.5733 107.704 40.8115 107.486 40.8115 106.833C40.8115 106.07 41.5733 105.635 42.7704 105.635C44.0763 105.635 45.3823 106.179 46.0352 106.506L47.0147 104.654ZM107.74 103.565C106.435 103.565 105.564 104.219 105.02 105.09V103.783H102.735V114.238H105.02V108.357C105.02 106.615 105.782 105.635 107.197 105.635C107.632 105.635 108.176 105.743 108.611 105.852L109.265 103.674C108.829 103.565 108.176 103.565 107.74 103.565ZM78.5747 109.011C78.5747 112.169 80.7512 114.456 84.1249 114.456C85.6485 114.456 86.7368 114.129 87.8251 113.258L86.7368 111.407C85.8662 112.06 84.9955 112.387 84.0161 112.387C82.166 112.387 80.8601 111.08 80.8601 109.011C80.8601 107.05 82.166 105.743 84.0161 105.635C84.9955 105.635 85.8662 105.961 86.7368 106.615L87.8251 104.763C86.7368 103.892 85.6485 103.565 84.1249 103.565C80.7512 103.565 78.5747 105.852 78.5747 109.011ZM99.6872 109.011V103.783H97.402V105.09C96.6402 104.11 95.5519 103.565 94.1371 103.565C91.1988 103.565 88.9134 105.852 88.9134 109.011C88.9134 112.169 91.1988 114.456 94.1371 114.456C95.6607 114.456 96.749 113.912 97.402 112.931V114.238H99.6872V109.011ZM91.3076 109.011C91.3076 107.159 92.5047 105.635 94.4636 105.635C96.3137 105.635 97.6196 107.05 97.6196 109.011C97.6196 110.862 96.3137 112.387 94.4636 112.387C92.5047 112.278 91.3076 110.862 91.3076 109.011ZM63.9918 103.565C60.9446 103.565 58.768 105.743 58.768 109.011C58.768 112.278 60.9446 114.456 64.1006 114.456C65.6242 114.456 67.1478 114.021 68.3449 113.04L67.2566 111.407C66.386 112.06 65.2977 112.496 64.2095 112.496C62.7947 112.496 61.3799 111.842 61.0534 109.991H68.7802C68.7802 109.664 68.7802 109.446 68.7802 109.12C68.8891 105.743 66.9302 103.565 63.9918 103.565ZM63.9918 105.526C65.4066 105.526 66.386 106.397 66.6037 108.03H61.1623C61.3799 106.615 62.3594 105.526 63.9918 105.526ZM120.691 109.011V99.6445H118.406V105.09C117.644 104.11 116.556 103.565 115.141 103.565C112.203 103.565 109.917 105.852 109.917 109.011C109.917 112.169 112.203 114.456 115.141 114.456C116.665 114.456 117.753 113.912 118.406 112.931V114.238H120.691V109.011ZM112.311 109.011C112.311 107.159 113.508 105.635 115.468 105.635C117.318 105.635 118.623 107.05 118.623 109.011C118.623 110.862 117.318 112.387 115.468 112.387C113.508 112.278 112.311 110.862 112.311 109.011ZM35.9142 109.011V103.783H33.6288V105.09C32.867 104.11 31.7787 103.565 30.364 103.565C27.4257 103.565 25.1403 105.852 25.1403 109.011C25.1403 112.169 27.4257 114.456 30.364 114.456C31.8876 114.456 32.9758 113.912 33.6288 112.931V114.238H35.9142V109.011ZM27.4257 109.011C27.4257 107.159 28.6227 105.635 30.5816 105.635C32.4317 105.635 33.7376 107.05 33.7376 109.011C33.7376 110.862 32.4317 112.387 30.5816 112.387C28.6227 112.278 27.4257 110.862 27.4257 109.011Z" fill="black"/>
<path d="M80.5307 24.3845H46.25V86.0271H80.5307V24.3845Z" fill="#FF5F00"/>
<path d="M48.4284 55.2073C48.4284 42.6827 54.3051 31.5741 63.3378 24.386C56.6993 19.1584 48.3196 16 39.178 16C17.5213 16 0 33.5343 0 55.2073C0 76.8802 17.5213 94.4146 39.178 94.4146C48.3196 94.4146 56.6993 91.2562 63.3378 86.0286C54.3051 78.9495 48.4284 67.7318 48.4284 55.2073Z" fill="#EB001B"/>
<path d="M126.779 55.2073C126.779 76.8801 109.258 94.4146 87.6012 94.4146C78.4596 94.4146 70.0799 91.2562 63.4414 86.0286C72.583 78.8406 78.3508 67.7318 78.3508 55.2073C78.3508 42.6827 72.4741 31.5741 63.4414 24.386C70.0799 19.1584 78.4596 16 87.6012 16C109.258 16 126.779 33.6433 126.779 55.2073Z" fill="#F79E1B"/>
</g>
</g>
<defs>
<clipPath id="clip0_45_998">
<rect width="128" height="98.4615" fill="white" transform="translate(0 16)"/>
</clipPath>
</defs>
</svg>
