<svg width="128" height="128" viewBox="0 0 128 128" fill="none" xmlns="http://www.w3.org/2000/svg">
<rect width="128" height="128" fill="white"/>
<g clip-path="url(#clip0_45_1065)">
<mask id="mask0_45_1065" style="mask-type:luminance" maskUnits="userSpaceOnUse" x="0" y="48" width="125" height="34">
<path d="M124.958 48H0V81.6842H124.958V48Z" fill="white"/>
</mask>
<g mask="url(#mask0_45_1065)">
<path d="M60.0524 59.221C59.1322 61.7919 56.5944 61.4887 56.5944 61.4887L53.1307 61.4907L54.4986 56.3975C54.4986 56.3975 56.6907 56.4087 58.1392 56.4087C59.9116 56.4087 60.5553 57.8174 60.0524 59.221ZM67.3282 56.8417C67.8907 52.3844 64.4967 50.5234 60.2582 50.5234C58.2688 50.5234 49.1232 50.5234 49.1232 50.5234L42.5508 74.4965H49.6258L51.6155 67.1052L57.2533 67.1397C57.2533 67.1397 65.9832 67.5098 67.3282 56.8417Z" fill="#2F3086"/>
<path d="M26.9048 57.0791H33.3585L30.7012 67.3121C30.7012 67.3121 30.0384 69.594 32.1718 69.7705C33.8562 69.9094 35.1099 67.8973 35.5212 66.5343C36.0605 64.7442 38.1584 57.0791 38.1584 57.0791H44.8066L39.7476 74.4965H33.9425L34.6559 72.0077C34.6559 72.0077 31.6944 75.6212 27.2939 75.1882C23.383 74.8038 23.0455 71.9652 23.7235 68.4237C24.0559 66.6844 26.9048 57.0791 26.9048 57.0791Z" fill="#2F3086"/>
<path d="M73.276 70.9478C72.1705 71.2287 70.8295 71.3808 70.5641 70.3758C69.8335 67.6213 76.278 66.815 76.278 66.815C76.3214 69.3251 74.1242 70.7318 73.276 70.9478ZM83.0236 65.9063C83.8737 63.0098 84.9493 60.2655 84.0836 58.7452C82.7591 56.4177 80.3642 56.2139 76.8617 56.2139C72.9924 56.2139 68.214 56.9491 66.6571 62.0991C69.0783 62.0991 73.0998 62.0991 73.0998 62.0991C73.0998 62.0991 73.6866 60.159 76.1058 60.2817C78.2461 60.3892 78.1286 61.8638 77.34 62.6782C75.9566 64.1061 72.1358 63.3141 67.9047 64.7836C64.2076 66.0666 62.9134 70.9315 63.7171 72.8737C64.4956 74.756 65.9446 74.9953 67.9007 75.188C71.0414 75.4964 73.4495 73.7449 74.5702 72.7165C74.5702 73.8585 74.5998 74.4964 74.5998 74.4964H81.3798L81.3636 73.8575C81.3636 73.8575 80.7596 73.6972 80.8263 72.8483C80.8762 72.2256 82.0467 69.2338 83.0236 65.9063Z" fill="#2F3086"/>
<path d="M17.7954 59.1657C16.8803 61.2874 14.0436 61.046 14.0436 61.046L10.7417 61.0308L11.9478 56.539C11.9478 56.539 14.902 56.5502 16.3502 56.5502C17.9018 56.5502 18.3863 57.7966 17.7954 59.1657ZM25.3012 56.105C25.8636 51.6487 21.9446 50.5229 17.7073 50.5229C15.7178 50.5229 6.57233 50.5229 6.57233 50.5229L0 74.496H7.075L9.28434 66.3562L13.2531 66.3887C13.2531 66.3887 14.8908 66.2933 14.9233 67.8329C14.9588 69.4748 13.7071 72.49 13.7882 74.496C14.7287 74.496 21.0568 74.496 21.0568 74.496L21.0406 73.8571C21.0406 73.8571 20.4365 73.6968 20.5044 72.848C20.5328 72.494 20.922 71.3764 21.4328 69.8683C21.7399 69.203 22.204 67.626 22.1614 66.3421C22.1078 64.7386 21.1024 63.9942 19.6531 63.4739C24.1722 62.4131 25.3012 56.105 25.3012 56.105Z" fill="#2F3086"/>
<path d="M86.096 57.0791H92.6682V67.5292L98.3547 57.0791H104.387L92.2255 78.2064C92.2255 78.2064 91.0965 79.9792 89.6959 80.9163C88.5445 81.6871 87.1308 81.6525 86.698 81.683C84.296 81.6627 81.3984 81.6566 81.3984 81.6566L82.796 76.6202L85.0582 76.6161C85.0582 76.6161 86.093 76.5107 86.4932 75.9996C86.8745 75.5128 87.0688 75.0259 87.0688 74.3119C87.0688 73.242 86.096 57.0791 86.096 57.0791Z" fill="#2F3086"/>
<path d="M112.815 53.0562L105.227 79.4733L119.431 66.2647L112.815 53.0562Z" fill="#108147"/>
<path d="M107.952 53.0557L100.363 79.4728L114.568 66.2643L107.952 53.0557Z" fill="#F07322"/>
<path d="M122.082 48.2596C120.64 48.2596 119.467 49.434 119.467 50.8772C119.467 52.3204 120.64 53.4948 122.082 53.4948C123.525 53.4948 124.698 52.3204 124.698 50.8772C124.698 49.434 123.525 48.2596 122.082 48.2596ZM122.082 53.7544C120.496 53.7544 119.207 52.4634 119.207 50.8772C119.207 49.291 120.496 48 122.082 48C123.667 48 124.958 49.291 124.958 50.8772C124.958 52.4634 123.667 53.7544 122.082 53.7544Z" fill="#020202"/>
<path d="M120.687 51.9516V50.1525H120.016V49.9111H121.631V50.1525H120.957V51.9516H120.687Z" fill="#020202"/>
<path d="M122.039 51.9516V49.9111H122.445L122.928 51.3563C122.972 51.4902 123.005 51.5916 123.026 51.6586C123.048 51.5835 123.085 51.475 123.134 51.331L123.622 49.9111H123.985V51.9516H123.725V50.2438L123.132 51.9516H122.889L122.299 50.2144V51.9516H122.039Z" fill="#020202"/>
</g>
</g>
<defs>
<clipPath id="clip0_45_1065">
<rect width="128" height="33.6842" fill="white" transform="translate(0 48)"/>
</clipPath>
</defs>
</svg>
