<svg width="128" height="128" viewBox="0 0 128 128" fill="none" xmlns="http://www.w3.org/2000/svg">
<rect width="128" height="128" fill="white"/>
<path d="M47.3052 44.707L30.9936 83.3949H20.3516L12.3246 52.5202C11.8373 50.6185 11.4136 49.9218 9.93148 49.1206C7.51172 47.8156 3.51576 46.5913 0 45.8314L0.238796 44.707H17.3692C19.5528 44.707 21.5157 46.152 22.0115 48.6516L26.2508 71.0384L36.728 44.7064L47.3052 44.707ZM89.0024 70.7636C89.0452 60.5527 74.7992 59.9902 74.8972 55.4288C74.9276 54.0406 76.2572 52.5647 79.1676 52.188C80.61 52.0002 84.5844 51.857 89.0924 53.9194L90.8608 45.7153C88.4384 44.8412 85.3216 44 81.444 44C71.4928 44 64.49 49.2587 64.4308 56.7887C64.3668 62.3583 69.4296 65.4663 73.2436 67.317C77.1676 69.2122 78.4844 70.4301 78.4692 72.1254C78.4416 74.7206 75.3396 75.8662 72.4412 75.9114C67.3808 75.9888 64.4444 74.5502 62.104 73.4684L60.2792 81.9441C62.6316 83.0169 66.9732 83.9529 71.4748 84C82.0512 84 88.97 78.8065 89.0024 70.7636ZM115.279 83.3949H124.59L116.463 44.707H107.868C105.936 44.707 104.306 45.8256 103.584 47.5454L88.4772 83.3949H99.0488L101.147 77.6163H114.064L115.279 83.3949ZM104.046 69.687L109.345 55.1612L112.395 69.687H104.046ZM61.6892 44.707L53.3644 83.3949H43.2976L51.6256 44.707H61.6892Z" fill="#1434CB"/>
</svg>
